<svg id="Layer_1" data-name="Layer 1" xmlns="http://www.w3.org/2000/svg" viewBox="0 0 375 20"><defs><style>.cls-1{fill:#fff;}</style></defs><title>Untitled-1</title><path class="cls-1" d="M34.17,10.23v-1H30.75v.92h2.37v.21a2.34,2.34,0,0,1-2.53,2.4c-1.7,0-2.76-1.33-2.76-3.46s1.08-3.45,2.75-3.45a2.37,2.37,0,0,1,2.47,1.74h1.07a3.32,3.32,0,0,0-3.54-2.71c-2.31,0-3.83,1.75-3.83,4.42s1.49,4.43,3.83,4.43A3.33,3.33,0,0,0,34.17,10.23Zm1.47,1.06c.11,1.46,1.35,2.41,3.14,2.41s3.16-1,3.16-2.54c0-1.25-.71-1.93-2.46-2.37l-.88-.23C37.43,8.26,37,7.88,37,7.22c0-.86.74-1.42,1.87-1.42a1.73,1.73,0,0,1,1.91,1.38h1.06a2.68,2.68,0,0,0-2.94-2.33c-1.78,0-3,1-3,2.4,0,1.21.67,1.9,2.2,2.28l1.08.28c1.17.3,1.69.75,1.69,1.48s-.83,1.45-2,1.45-2.05-.56-2.17-1.45Z"/><path class="cls-1" d="M168.2,13.71c2.15,0,3.43-1.69,3.43-4.53A5.37,5.37,0,0,0,171,6.5a3,3,0,0,0-2.78-1.67,2.94,2.94,0,0,0-3.14,3,2.71,2.71,0,0,0,2.78,2.82,2.34,2.34,0,0,0,2.19-1.27h.1c0,1.94-.73,3.09-2,3.09a1.48,1.48,0,0,1-1.48-1h-1.5A2.85,2.85,0,0,0,168.2,13.71Zm.06-4.29a1.6,1.6,0,0,1-1.67-1.66,1.64,1.64,0,0,1,1.67-1.67,1.66,1.66,0,0,1,1.67,1.69A1.61,1.61,0,0,1,168.26,9.42Zm6.08,4.2a.93.93,0,1,0-.93-.92A.9.9,0,0,0,174.34,13.62Zm0-4.39a.93.93,0,1,0-.93-.92A.89.89,0,0,0,174.34,9.23ZM181,13.5h1.44V11.92h1.15V10.65h-1.15V5h-2.13c-1.49,2.25-2.68,4.14-3.45,5.54v1.34H181Zm-2.74-2.91c1-1.73,1.87-3.12,2.68-4.31H181v4.4h-2.76Zm8.79,2.91h1.51V5h-1.51l-2.2,1.55V8L187,6.57h.1Zm12.72,0h1.63L198.4,5h-1.7l-3,8.46h1.53l.73-2.16h3.11Zm-2.31-6.84h.1l1.15,3.48h-2.41Zm14.12,6.84V5h-1.77l-2.54,6.16h-.11L204.63,5h-1.77V13.5h1.41V7.55h.08l2.34,5.62h1.08l2.33-5.62h.09v6Z"/><path class="cls-1" d="M52,5.5A9.1,9.1,0,0,1,58.5,8.21l-1.09,1a7.61,7.61,0,0,0-10.82,0L45.5,8.18A9.12,9.12,0,0,1,52,5.5Zm4.33,4.82a6,6,0,0,0-8.64,0l1.09,1.06a4.46,4.46,0,0,1,6.46,0Zm-2.18,2.12a2.88,2.88,0,0,0-4.28,0L52,14.5Z"/><path class="cls-1" d="M19.5,5a.5.5,0,0,0-.5.5V14a.5.5,0,0,0,.5.5H21a.5.5,0,0,0,.5-.5V5.5A.5.5,0,0,0,21,5Zm-4,2.5A.5.5,0,0,0,15,8v6a.5.5,0,0,0,.5.5H17a.5.5,0,0,0,.5-.5V8a.5.5,0,0,0-.5-.5ZM11,10a.5.5,0,0,1,.5-.5H13a.5.5,0,0,1,.5.5v4a.5.5,0,0,1-.5.5H11.5A.5.5,0,0,1,11,14ZM7.5,11.5A.5.5,0,0,0,7,12v2a.5.5,0,0,0,.5.5H9a.5.5,0,0,0,.5-.5V12a.5.5,0,0,0-.5-.5Z"/><path class="cls-1" d="M365.5,5h-17A2.5,2.5,0,0,0,346,7.5V13a2.5,2.5,0,0,0,2.5,2.5h17A2.5,2.5,0,0,0,368,13V7.5A2.5,2.5,0,0,0,365.5,5Zm1.5,8a1.5,1.5,0,0,1-1.5,1.5h-17A1.5,1.5,0,0,1,347,13V7.5A1.5,1.5,0,0,1,348.5,6h17A1.5,1.5,0,0,1,367,7.5Z"/><rect class="cls-1" x="348" y="7" width="18" height="6.5" rx="1" ry="1"/><path class="cls-1" d="M369,8.5v3.87a2,2,0,0,0,0-3.87Z"/><path class="cls-1" d="M315.81,14.5h1.06V6h-1.05l-2.25,1.62V8.78l2.15-1.56h.09Zm6.42.2c1.9,0,3-1.61,3-4.41s-1.11-4.44-3-4.44-3,1.63-3,4.42S320.33,14.7,322.23,14.7Zm0-.92c-1.24,0-1.94-1.25-1.94-3.51s.71-3.5,1.94-3.5,1.93,1.26,1.93,3.5S323.48,13.78,322.23,13.78Zm7.56.92c1.9,0,3-1.61,3-4.41s-1.11-4.44-3-4.44-3,1.63-3,4.42S327.89,14.7,329.79,14.7Zm0-.92c-1.25,0-1.94-1.25-1.94-3.51s.71-3.5,1.94-3.5,1.93,1.26,1.93,3.5S331,13.78,329.79,13.78Zm7.85-5.85a1.82,1.82,0,1,0-3.61,0,1.82,1.82,0,1,0,3.61,0Zm-1.8,1.29c-.52,0-.87-.51-.87-1.29s.34-1.28.87-1.28.86.49.86,1.28S336.36,9.22,335.84,9.22Zm-.09,5.28,2.9-4L341.93,6h-1.07l-3,4.05-3.23,4.41Zm6.78-1.89a1.81,1.81,0,1,0-3.6,0,1.81,1.81,0,1,0,3.6,0Zm-1.8,1.29c-.52,0-.87-.51-.87-1.29s.34-1.29.87-1.29.86.5.86,1.29S341.25,13.9,340.73,13.9Z"/></svg>